<svg xmlns="http://www.w3.org/2000/svg" viewBox="0 0 1386.99 285.76"><defs><style>.cls-1,.cls-2{fill:#fff;}.cls-2{font-size:252.83px;font-family:IBMPlexSans-Regular, IBM Plex Sans;letter-spacing:0.05em;}.cls-3{letter-spacing:0.04em;}.cls-4{letter-spacing:0.05em;}</style></defs><g id="Layer_2" data-name="Layer 2"><g id="Layer_1-2" data-name="Layer 1"><path class="cls-1" d="M87.5,14.9l-.33-.61q-3.66-6.76-7.32-13a2.51,2.51,0,0,0-4.31,0q-3.66,6-7.32,11.59l-.33.5c-2.48,3.76-5,7.37-7.44,10.88-1,1.4.21,3.5,2.15,3.79,10.06,1.5,20.12,3.38,30.18,4.88,1.94.29,3.15-1.84,2.16-3.78C92.46,24.24,90,19.5,87.5,14.9Z"/><path class="cls-1" d="M152.88,134.52c-50.12,39.81-100.25-44-150.37-4.2-1.94,1.56-3.15.56-2.15-2q3.51-9,7-17a5.39,5.39,0,0,1,2.15-2.47c37.9-21.08,75.8,19.9,113.7,19.4a2.68,2.68,0,0,0,2.15-4c-2.34-4-4.69-8.15-7-12.48a2.82,2.82,0,0,0-2.16-1.48C85,107,53.77,81.4,22.54,87.78c-1.94.41-3.15-1.25-2.15-3.09,9-16.63,18-29.46,27.07-41.82a2.2,2.2,0,0,1,2.15-.79c18.72,2.81,37.44,9.26,56.16,12.07a3,3,0,0,1,2.15,1.66c2.35,4.68,4.7,9.33,7,13.9,1,1.92-.21,4.16-2.15,3.92-17.87-2.14-35.73-9.47-53.6-14.07a2,2,0,0,0-2.15.61c-2.35,3.12-4.7,6.24-7,9.41-1,1.34.21,3.57,2.15,4,24.54,6,49.09,20.25,73.63,18.92A2.32,2.32,0,0,1,128,93.7c2.86,4.9,5.72,9.51,8.57,13.73,6.17,9.15,12.35,16.46,18.52,21.52C156,129.74,154.82,133,152.88,134.52Z"/><path class="cls-1" d="M67.9,270.85l.32.61q3.68,6.77,7.33,13.05a2.5,2.5,0,0,0,4.3,0c2.44-4,4.89-7.89,7.33-11.6l.33-.5c2.48-3.75,5-7.36,7.43-10.87,1-1.41-.21-3.5-2.15-3.8-10.06-1.49-20.12-3.37-30.18-4.87-1.94-.3-3.15,1.84-2.15,3.78C62.94,261.52,65.42,266.26,67.9,270.85Z"/><path class="cls-1" d="M2.51,151.24c50.12-39.82,100.25,44,150.37,4.19,1.94-1.55,3.15-.55,2.16,2q-3.53,9-7,17a5.38,5.38,0,0,1-2.16,2.48C107.94,198,70,157,32.14,157.49a2.68,2.68,0,0,0-2.15,4q3.51,6,7,12.48a2.87,2.87,0,0,0,2.16,1.49c31.22,3.27,62.45,28.89,93.67,22.51,2-.4,3.15,1.26,2.16,3.1-9,16.63-18,29.46-27.07,41.82a2.24,2.24,0,0,1-2.16.79c-18.72-2.82-37.44-9.26-56.16-12.07a3,3,0,0,1-2.15-1.67c-2.35-4.68-4.69-9.33-7-13.89-1-1.93.21-4.16,2.15-3.93,17.87,2.15,35.74,9.48,53.6,14.08a2,2,0,0,0,2.16-.61c2.34-3.12,4.69-6.24,7-9.42,1-1.34-.22-3.56-2.16-4-24.54-6-49.09-20.25-73.63-18.92a2.32,2.32,0,0,1-2.15-1.16c-2.86-4.91-5.71-9.51-8.57-13.74C12.7,169.17,6.53,161.87.36,156.81-.64,156,.57,152.79,2.51,151.24Z"/><text class="cls-2" transform="translate(226.27 216.42)">Sauda<tspan class="cls-3" x="765.3" y="0">g</tspan><tspan class="cls-4" x="909.67" y="0">ar</tspan></text></g></g></svg>